# xmcd
#
# Track frame offsets: 
#        150
#        17565
#        36712
#        53124
#        72247
#        96605
#        119474
#        134577
#        154484
#        172847
#        190975
#        209095
#        217317
#        240547
#        262092
#
# Disc length: 3842 seconds
#
# Revision: 0
# Processed by: cddbd v1.5.2PL0 Copyright (c) Steve Scherf et al.
# Submitted via: ExactAudioCopy v1.0b4
#
DISCID=f60f000f
DTITLE=Joe Satriani - Shockwave Supernova
DYEAR=2015
DGENRE=Blues Rock
TTITLE0=Shockwave Supernova
TTITLE1=Lost In A Memory
TTITLE2=Crazy Joey
TTITLE3=In My Pocket
TTITLE4=On Peregrine Wings
TTITLE5=Cataclysmic
TTITLE6=San Francisco Blue
TTITLE7=Keep On Movin'
TTITLE8=All Of My Life
TTITLE9=A Phase I'm Going Through
TTITLE10=Scarborough Stomp
TTITLE11=Butterfly And Zebra
TTITLE12=If There Is No Heaven
TTITLE13=Stars Race Across The Sky
TTITLE14=Goodbye Supernova
EXTD=
EXTT0=
EXTT1=
EXTT2=
EXTT3=
EXTT4=
EXTT5=
EXTT6=
EXTT7=
EXTT8=
EXTT9=
EXTT10=
EXTT11=
EXTT12=
EXTT13=
EXTT14=
PLAYORDER=
